<svg height="48" viewBox="0 0 1024 1024" width="48" xmlns="http://www.w3.org/2000/svg"><path d="m1022 513.2c0 282.4-228.4 510.8-510.8 510.8s-510.8-228.4-510.8-510.8c0-215.6 134.8-400.2 325-475.4 56.6-22.6 120.6-35.4 185.8-35.4s129.2 12.8 185.8 35.4c190.2 75.2 325 259.8 325 475.4zm-706.6-106.4c0 86.6 44 160.4 107.8 197.2 27 15.6 56.8 24.2 88 24.2s59.6-8.6 85.2-22.8c65.2-35.4 110.6-110.6 110.6-198.6 0-122-88-221.4-195.8-221.4s-195.8 99.4-195.8 221.4zm197.2 584.6c149 0 282.4-68.2 370.4-176-10-85.2-92.2-157.4-210-193-44 39.8-100.8 63.8-161.8 63.8-62.4 0-120.6-25.6-164.6-66.6-113.6 32.6-197.2 99.4-215.6 177.4 85 117.8 225.6 194.4 381.6 194.4z" fill="#ee5037"/></svg>