<?xml version="1.0" standalone="no"?><!DOCTYPE svg PUBLIC "-//W3C//DTD SVG 1.1//EN" "http://www.w3.org/Graphics/SVG/1.1/DTD/svg11.dtd"><svg t="1587862572268" class="icon" viewBox="0 0 1024 1024" version="1.1" xmlns="http://www.w3.org/2000/svg" p-id="7898" xmlns:xlink="http://www.w3.org/1999/xlink" width="48" height="48"><defs><style type="text/css"></style></defs><path d="M893.7 505.9H129.3c-13 0-24.8-7.9-29.8-19.9-5-12-2.2-25.9 7-35.2l307-307c26.1-26.1 60.9-40.5 98-40.5s71.9 14.4 98 40.5l307 307c9.2 9.2 12 23.1 7 35.2-5 12.1-16.7 19.9-29.8 19.9zM673.2 919.9h-31.5c-17.8 0-32.3-14.4-32.3-32.3v-77.4c0-23.1-18.8-42.1-41.9-42.4-22.3 0.3-41.1 19.3-41.1 42.4v77.4c0 17.8-14.4 32.3-32.3 32.3H349.8c-70.9 0-128.7-63.7-128.7-141.9V581.9c0-17.8 14.4-32.3 32.3-32.3h516.2c17.8 0 32.3 14.4 32.3 32.3V778c-0.1 78.3-57.8 141.9-128.7 141.9z" p-id="7899"></path></svg>