<?xml version="1.0" standalone="no"?><!DOCTYPE svg PUBLIC "-//W3C//DTD SVG 1.1//EN" "http://www.w3.org/Graphics/SVG/1.1/DTD/svg11.dtd"><svg t="1587862663627" class="icon" viewBox="0 0 1311 1024" version="1.1" xmlns="http://www.w3.org/2000/svg" p-id="9512" xmlns:xlink="http://www.w3.org/1999/xlink" width="61.453125" height="48"><defs><style type="text/css"></style></defs><path d="M526.97076 1018.011696c-4.790643-2.395322-25.150877-8.982456-44.91228-14.97076-65.871345-18.563743-144.916959-61.080702-186.835088-100.603509l-19.761404-18.563743V538.348538l13.7731 4.191813c7.185965 1.796491 35.929825 12.575439 64.074854 23.354386s86.231579 31.139181 128.748538 44.912281c43.115789 13.773099 82.039766 26.947368 87.429239 29.94152 20.959064 10.778947 82.039766 19.162573 114.376608 15.569591 35.330994-3.592982 73.05731-17.366082 157.492398-57.48772 26.348538-12.575439 69.464327-32.336842 95.812866-44.31345 26.348538-12.575439 55.092398-26.348538 64.074853-31.139181 8.383626-4.191813 18.563743-8.383626 22.156726-8.383626 4.790643 0 6.587135 54.493567 6.587134 183.242105v183.242106l-16.168421 15.56959c-43.71462 42.516959-123.957895 88.626901-184.439766 105.992983-19.761404 5.389474-40.720468 12.575439-46.109942 15.56959-13.174269 6.587135-244.322807 6.587135-256.299415-0.59883z" p-id="9513"></path><path d="M1156.940351 656.916959c-23.354386-23.953216-43.115789-47.307602-43.11579-52.098246s10.778947-19.761404 23.953217-32.336842l23.953216-23.953216V376.664327l-13.174269 4.191813c-12.575439 3.592982-62.877193 25.150877-153.300585 65.871345-17.366082 7.784795-32.935673 14.37193-34.133333 14.37193-4.191813 0-94.615205 41.319298-197.614035 90.423392-50.900585 24.552047-56.888889 25.749708-107.789474 25.749708-45.511111 0-59.284211-2.395322-89.824561-15.569591-44.912281-20.360234-101.202339-42.516959-155.695907-62.877193-22.755556-8.383626-44.31345-17.366082-47.906432-19.761404-2.994152-2.395322-22.156725-10.180117-41.918129-17.366081-19.761404-7.784795-38.325146-15.569591-41.918129-17.964913-2.994152-2.395322-15.569591-8.383626-26.947368-12.575438C189.82924 407.803509 43.71462 337.14152 20.959064 319.775439 3.592982 306.60117 0 300.014035 0 281.450292c0-22.156725 1.197661-23.354386 46.708772-46.708772 25.150877-13.174269 56.888889-26.947368 70.063158-31.139181s34.732164-12.575439 47.906433-18.563743 38.923977-16.168421 56.888888-22.755555 59.883041-22.755556 92.818714-36.528655 78.446784-31.738012 101.80117-40.121637c22.755556-8.383626 47.307602-18.563743 53.894736-22.755556s22.755556-10.778947 35.929825-14.97076c23.354386-7.185965 60.481871-22.755556 95.214035-39.522807 10.180117-4.790643 35.929825-8.383626 62.278363-8.383626 40.121637 0 50.900585 2.395322 93.417543 23.354386 26.947368 12.575439 59.284211 26.348538 72.45848 30.540351s26.947368 9.581287 30.540351 12.575438 23.354386 11.976608 44.912281 19.761404c20.959064 7.784795 53.295906 20.959064 71.260818 29.34269s57.487719 24.552047 86.83041 37.127485c29.94152 11.976608 62.278363 25.749708 71.859649 29.941521 10.180117 4.790643 44.912281 19.761404 77.847953 32.935672 79.644444 32.336842 98.807018 45.511111 98.807017 69.464328 0 15.569591-3.592982 19.761404-26.947368 31.139181l-26.947368 13.174269v210.189474l17.964912 25.749707c9.581287 14.37193 21.557895 27.546199 26.947368 29.34269 10.180117 4.191813 12.575439 22.156725 2.994152 22.156726-2.994152 0-10.778947 4.790643-16.767251 10.778947-29.94152 28.74386-80.243275 73.05731-84.435088 73.05731-1.796491 0-23.354386-19.761404-47.307602-43.71462z" p-id="9514"></path></svg>